<?xml version="1.0" encoding="UTF-8" standalone="no"?>
<!DOCTYPE svg PUBLIC "-//W3C//DTD SVG 1.1//EN" "http://www.w3.org/Graphics/SVG/1.1/DTD/svg11.dtd">
<svg xmlns="http://www.w3.org/2000/svg" version="1.1" viewBox="0.00 0.00 1216.00 1216.00">
<g stroke-width="2.00" fill="none" stroke-linecap="butt">
<path stroke="#cecece" vector-effect="non-scaling-stroke" d="
  M 988.01 836.00
  L 988.00 798.73
  A 0.73 0.72 90.0 0 1 988.72 798.00
  L 1025.50 798.01
  Q 1026.01 798.01 1026.01 797.50
  L 1026.01 722.75
  A 0.74 0.74 0.0 0 1 1026.75 722.01
  L 1063.26 722.00
  A 0.76 0.76 0.0 0 0 1064.02 721.24
  L 1064.00 684.75
  Q 1064.00 684.00 1064.75 684.00
  L 1101.50 684.00
  A 0.51 0.50 -0.0 0 0 1102.01 683.50
  L 1102.02 647.00
  Q 1102.02 646.02 1103.00 646.02
  L 1139.25 645.99
  Q 1140.00 645.99 1140.00 645.25
  L 1140.00 570.75
  A 0.75 0.75 0.0 0 1 1140.75 570.00
  L 1177.25 570.02
  A 0.77 0.76 -90.0 0 0 1178.01 569.25
  L 1178.01 191.25
  A 1.26 1.25 0.0 0 0 1176.75 190.00
  L 1140.75 190.00
  A 0.75 0.75 0.0 0 1 1140.00 189.25
  L 1140.00 152.26
  A 0.25 0.25 0.0 0 0 1139.75 152.01
  L 1102.75 151.98
  A 0.73 0.73 0.0 0 1 1102.02 151.25
  L 1102.02 115.01
  A 1.02 1.01 -90.0 0 0 1101.01 113.99
  L 1064.76 114.00
  A 0.75 0.74 -0.0 0 1 1064.01 113.26
  L 1064.01 76.26
  A 0.26 0.26 0.0 0 0 1063.75 76.00
  L 1026.75 75.99
  A 0.74 0.73 90.0 0 1 1026.02 75.25
  L 1026.02 39.25
  A 1.25 1.25 0.0 0 0 1024.77 38.00
  L 532.05 38.00"
/>
<path stroke="#cecece" vector-effect="non-scaling-stroke" d="
  M 988.01 836.00
  L 912.70 836.00
  A 0.70 0.69 0.0 0 0 912.00 836.69
  L 912.02 873.24
  A 0.76 0.76 0.0 0 1 911.26 874.00
  L 495.24 874.00
  A 1.26 1.25 -90.0 0 1 493.99 872.74
  L 494.00 836.75
  A 0.75 0.75 0.0 0 0 493.25 836.00
  L 419.24 836.00
  Q 417.98 836.00 417.98 834.74
  L 418.00 798.76
  A 0.74 0.74 0.0 0 0 417.26 798.02
  L 380.75 797.99
  A 0.75 0.74 -0.0 0 1 380.00 797.25
  L 380.00 760.50
  A 0.50 0.50 0.0 0 0 379.50 760.00
  L 304.50 760.00
  A 0.50 0.50 0.0 0 1 304.00 759.50
  L 304.00 722.75
  A 0.75 0.75 0.0 0 0 303.25 722.00
  L 266.75 722.00
  A 0.75 0.75 0.0 0 1 266.00 721.25
  L 266.00 684.75
  A 0.75 0.75 0.0 0 0 265.25 684.00
  L 228.30 684.00
  A 0.30 0.30 0.0 0 1 228.00 683.70
  L 228.00 646.75
  A 0.75 0.74 -0.0 0 0 227.25 646.01
  L 152.56 646.00
  A 0.57 0.56 90.0 0 0 152.00 646.57
  L 152.01 684.00"
/>
<path stroke="#cecece" vector-effect="non-scaling-stroke" d="
  M 152.01 684.00
  L 76.70 684.00
  A 0.70 0.69 -0.0 0 0 76.00 684.69
  L 76.00 721.25
  A 0.75 0.75 0.0 0 1 75.25 722.00
  L 38.94 722.00
  A 0.94 0.94 0.0 0 1 38.00 721.06
  L 38.00 646.04"
/>
<path stroke="#cecece" vector-effect="non-scaling-stroke" d="
  M 38.00 646.04
  L 75.24 646.00
  A 0.76 0.75 -0.0 0 0 76.00 645.25
  L 76.00 607.99"
/>
<path stroke="#cecece" vector-effect="non-scaling-stroke" d="
  M 76.00 607.99
  L 113.45 608.00
  A 0.54 0.54 0.0 0 0 113.99 607.46
  L 114.01 569.99"
/>
<path stroke="#cecece" vector-effect="non-scaling-stroke" d="
  M 114.01 569.99
  L 151.12 570.00
  Q 151.99 570.00 151.99 569.12
  L 152.00 531.99"
/>
<path stroke="#cecece" vector-effect="non-scaling-stroke" d="
  M 152.00 531.99
  L 189.43 532.00
  A 0.57 0.57 0.0 0 0 190.00 531.43
  L 190.00 493.99"
/>
<path stroke="#cecece" vector-effect="non-scaling-stroke" d="
  M 190.00 493.99
  L 227.04 494.00
  Q 228.00 494.00 228.00 493.04
  L 228.00 342.50
  Q 228.00 342.00 228.50 342.00
  L 265.48 341.99
  A 0.51 0.51 0.0 0 0 265.99 341.48
  L 266.00 265.99"
/>
<path stroke="#cecece" vector-effect="non-scaling-stroke" d="
  M 266.00 265.99
  L 303.12 266.00
  Q 303.99 266.00 303.99 265.12
  L 304.00 189.99"
/>
<path stroke="#cecece" vector-effect="non-scaling-stroke" d="
  M 304.00 189.99
  L 341.12 190.00
  Q 342.00 190.00 342.00 189.12
  L 342.01 151.99"
/>
<path stroke="#cecece" vector-effect="non-scaling-stroke" d="
  M 342.01 151.99
  L 379.12 152.00
  Q 380.00 152.00 380.00 151.12
  L 380.00 113.99"
/>
<path stroke="#cecece" vector-effect="non-scaling-stroke" d="
  M 380.00 113.99
  L 417.25 113.99
  A 0.74 0.74 0.0 0 0 417.99 113.25
  L 418.01 76.00"
/>
<path stroke="#cecece" vector-effect="non-scaling-stroke" d="
  M 418.01 76.00
  L 531.20 76.00
  A 0.79 0.79 0.0 0 0 531.99 75.21
  L 532.05 38.00"
/>
<path stroke="#fada80" vector-effect="non-scaling-stroke" d="
  M 911.98 380.03
  L 911.97 417.06
  A 0.92 0.92 0.0 0 1 911.05 417.98
  L 874.24 418.02
  A 0.24 0.24 0.0 0 0 874.00 418.26
  L 873.99 455.25
  A 0.74 0.74 0.0 0 1 873.25 455.99
  L 836.49 456.02
  A 0.49 0.48 -90.0 0 0 836.01 456.51
  L 836.00 493.50
  A 0.50 0.50 0.0 0 0 836.50 494.00
  L 873.00 494.00
  A 1.00 0.99 90.0 0 1 873.99 495.00
  L 874.00 531.50
  A 0.50 0.50 0.0 0 0 874.50 532.00
  L 911.00 532.00
  A 1.01 1.00 -0.0 0 1 912.01 533.00
  L 912.00 569.38
  A 0.63 0.62 -0.0 0 0 912.63 570.00
  L 1025.24 569.99
  A 0.74 0.73 -0.0 0 0 1025.98 569.26
  L 1026.00 532.50
  Q 1026.00 532.01 1026.50 532.00
  L 1063.00 531.99
  A 0.99 0.99 0.0 0 0 1063.99 531.00
  L 1063.98 494.75
  Q 1063.98 494.01 1063.25 494.01
  L 1027.04 494.00
  Q 1026.81 494.00 1026.61 494.11
  Q 1026.45 494.20 1026.22 494.22"
/>
<path stroke="#df92c8" vector-effect="non-scaling-stroke" d="
  M 1026.22 494.22
  Q 1026.09 494.22 1025.92 494.13
  Q 1025.71 494.00 1025.46 494.00
  L 988.75 494.00
  A 0.75 0.75 0.0 0 1 988.00 493.25
  L 988.00 456.72
  A 0.71 0.71 0.0 0 0 987.29 456.01
  L 949.77 455.78"
/>
<path stroke="#fada80" vector-effect="non-scaling-stroke" d="
  M 949.77 455.78
  L 950.01 418.77
  A 0.77 0.77 0.0 0 1 950.78 418.01
  L 1025.25 417.99
  A 0.74 0.74 0.0 0 0 1025.99 417.25
  L 1026.00 380.72
  A 0.71 0.71 0.0 0 0 1025.30 380.01
  L 988.06 379.67"
/>
<path stroke="#808080" vector-effect="non-scaling-stroke" d="
  M 988.06 379.67
  L 988.01 342.57
  Q 988.01 342.05 988.52 342.05
  L 1025.26 341.98
  A 0.74 0.74 0.0 0 0 1026.00 341.24
  L 1026.00 228.75
  A 0.75 0.75 0.0 0 0 1025.25 228.00
  L 988.90 227.99
  A 0.84 0.83 -90.0 0 1 988.07 227.15
  L 987.98 190.74
  A 0.74 0.74 0.0 0 0 987.24 190.00
  L 874.26 190.00
  A 0.24 0.24 0.0 0 0 874.02 190.24
  L 873.97 227.08
  A 0.92 0.92 0.0 0 1 873.05 228.00
  L 836.50 228.00
  A 0.50 0.50 0.0 0 0 836.00 228.50
  L 836.00 341.25
  Q 836.00 342.00 836.75 342.00
  L 872.99 342.02
  A 0.98 0.97 0.0 0 1 873.97 342.99
  L 874.01 379.45
  Q 874.01 380.01 874.58 380.01
  L 911.98 380.03"
/>
<path stroke="#7b5a00" vector-effect="non-scaling-stroke" d="
  M 988.06 379.67
  Q 985.07 380.13 981.50 380.11
  Q 946.73 379.91 911.98 380.03"
/>
<path stroke="#da6c49" vector-effect="non-scaling-stroke" d="
  M 949.77 455.78
  L 912.28 456.01
  A 0.27 0.27 0.0 0 0 912.01 456.28
  L 912.00 493.25
  A 0.75 0.75 0.0 0 0 912.75 494.00
  L 949.50 494.00
  A 0.50 0.50 0.0 0 1 950.00 494.50
  L 950.00 531.25
  A 0.76 0.75 90.0 0 0 950.75 532.01
  L 1025.29 532.00
  Q 1026.01 532.00 1026.02 531.28
  L 1026.22 494.22"
/>
<path stroke="#808080" vector-effect="non-scaling-stroke" d="
  M 798.00 266.72
  A 0.70 0.70 0.0 0 0 797.30 266.02
  L 760.75 265.95
  A 0.70 0.70 0.0 0 1 760.05 265.25
  L 759.98 228.70
  A 0.70 0.70 0.0 0 0 759.28 228.00
  L 646.71 228.00
  A 0.70 0.70 0.0 0 0 646.01 228.70
  L 645.97 265.29
  A 0.70 0.70 0.0 0 1 645.27 265.99
  L 608.70 266.00
  A 0.70 0.70 0.0 0 0 608.00 266.70
  L 608.00 379.29
  A 0.70 0.70 0.0 0 0 608.70 379.99
  L 645.28 380.04
  A 0.70 0.70 0.0 0 1 645.98 380.74
  L 646.01 417.30
  A 0.70 0.70 0.0 0 0 646.71 418.00
  L 759.28 417.99
  A 0.70 0.70 0.0 0 0 759.98 417.29
  L 760.04 380.74
  A 0.70 0.70 0.0 0 1 760.74 380.04
  L 797.31 379.98
  A 0.70 0.70 0.0 0 0 798.01 379.28
  L 798.00 266.72"
/>
<path stroke="#cecece" vector-effect="non-scaling-stroke" d="
  M 455.99 532.61
  A 0.62 0.62 0.0 0 1 456.61 531.99
  L 493.38 532.00
  A 0.62 0.62 0.0 0 0 494.00 531.38
  L 494.00 494.62
  A 0.62 0.62 0.0 0 1 494.62 494.00
  L 607.37 494.00
  A 0.62 0.62 0.0 0 0 607.99 493.38
  L 608.00 456.62
  A 0.62 0.62 0.0 0 0 607.38 456.00
  L 456.62 456.00
  A 0.62 0.62 0.0 0 0 456.00 456.62
  L 456.00 493.37
  A 0.62 0.62 0.0 0 1 455.38 493.99
  L 418.63 494.01
  A 0.62 0.62 0.0 0 0 418.01 494.63
  L 418.02 531.38
  A 0.62 0.62 0.0 0 1 417.40 532.00
  L 380.63 532.00
  A 0.62 0.62 0.0 0 0 380.01 532.62
  L 379.99 569.37
  A 0.62 0.62 0.0 0 1 379.37 569.99
  L 342.66 570.03
  A 0.62 0.62 0.0 0 0 342.04 570.65
  L 342.06 607.36
  A 0.62 0.62 0.0 0 0 342.68 607.98
  L 417.38 608.01
  A 0.62 0.62 0.0 0 0 418.00 607.39
  L 417.99 570.61
  A 0.62 0.62 0.0 0 1 418.61 569.99
  L 455.38 570.00
  A 0.62 0.62 0.0 0 0 456.00 569.38
  L 455.99 532.61"
/>
<path stroke="#cecece" vector-effect="non-scaling-stroke" d="
  M 569.93 683.99
  L 456.71 683.99
  A 0.70 0.70 0.0 0 0 456.01 684.69
  L 456.03 721.26
  A 0.74 0.73 90.0 0 0 456.76 722.00
  L 569.28 722.00
  A 0.71 0.71 0.0 0 0 569.99 721.29
  L 569.93 683.99"
/>
<path stroke="#cecece" vector-effect="non-scaling-stroke" d="
  M 569.93 683.99
  L 607.33 683.97
  A 0.66 0.66 0.0 0 0 607.99 683.31
  L 607.99 646.75
  A 0.75 0.74 -90.0 0 0 607.25 646.00
  L 570.71 646.02
  Q 570.03 646.02 570.03 646.70
  L 569.93 683.99"
/>
<path stroke="#808080" vector-effect="non-scaling-stroke" d="
  M 987.79 304.00
  L 987.97 228.71
  A 0.65 0.64 90.0 0 0 987.33 228.06
  L 911.98 228.05"
/>
<path stroke="#002c6e" vector-effect="non-scaling-stroke" d="
  M 911.98 228.05
  L 874.99 228.04
  A 0.98 0.97 -0.0 0 0 874.01 229.01
  L 874.04 341.01
  Q 874.04 341.98 875.01 341.98
  L 987.48 341.99
  A 0.46 0.45 90.0 0 0 987.93 341.53
  L 987.79 304.00"
/>
<path stroke="#80aced" vector-effect="non-scaling-stroke" d="
  M 911.98 228.05
  L 911.99 303.32
  A 0.68 0.67 0.0 0 0 912.67 303.99
  L 987.79 304.00"
/>
<path stroke="#808080" vector-effect="non-scaling-stroke" d="
  M 759.99 342.00
  L 759.97 266.69
  A 0.66 0.66 0.0 0 0 759.31 266.03
  L 683.97 266.05"
/>
<path stroke="#002c6e" vector-effect="non-scaling-stroke" d="
  M 683.97 266.05
  L 646.98 266.04
  A 0.97 0.96 -0.0 0 0 646.01 267.00
  L 646.05 379.10
  A 0.89 0.89 0.0 0 0 646.94 379.99
  L 759.48 379.96
  A 0.41 0.41 0.0 0 0 759.89 379.55
  L 759.99 342.00"
/>
<path stroke="#80aced" vector-effect="non-scaling-stroke" d="
  M 683.97 266.05
  L 683.98 341.12
  A 0.88 0.87 -0.0 0 0 684.86 341.99
  L 759.99 342.00"
/>
<path stroke="#ce935c" vector-effect="non-scaling-stroke" d="
  M 835.99 912.02
  L 759.79 912.28"
/>
<path stroke="#ce935c" vector-effect="non-scaling-stroke" d="
  M 569.99 912.21
  L 494.01 912.00"
/>
<path stroke="#ed7a0e" vector-effect="non-scaling-stroke" d="
  M 569.99 950.00
  L 494.01 950.03"
/>
<path stroke="#ed7a0e" vector-effect="non-scaling-stroke" d="
  M 835.99 950.04
  L 760.00 950.01"
/>
<path stroke="#ed7a0e" vector-effect="non-scaling-stroke" d="
  M 569.99 987.97
  L 494.01 987.99"
/>
<path stroke="#ed7a0e" vector-effect="non-scaling-stroke" d="
  M 835.99 987.96
  L 760.01 987.96"
/>
<path stroke="#ed7a0e" vector-effect="non-scaling-stroke" d="
  M 569.99 1025.98
  L 494.01 1025.96"
/>
<path stroke="#ed7a0e" vector-effect="non-scaling-stroke" d="
  M 835.99 1026.00
  L 760.01 1025.98"
/>
<path stroke="#ed7a0e" vector-effect="non-scaling-stroke" d="
  M 569.99 1063.97
  L 494.01 1063.98"
/>
<path stroke="#ed7a0e" vector-effect="non-scaling-stroke" d="
  M 835.99 1063.95
  L 760.01 1063.97"
/>
<path stroke="#ed7a0e" vector-effect="non-scaling-stroke" d="
  M 569.99 1102.00
  L 494.00 1102.03"
/>
<path stroke="#ed7a0e" vector-effect="non-scaling-stroke" d="
  M 835.99 1102.04
  L 760.00 1102.01"
/>
<path stroke="#ed7a0e" vector-effect="non-scaling-stroke" d="
  M 569.99 1139.97
  Q 532.28 1140.02 494.75 1140.00
  Q 494.47 1140.00 494.01 1140.52"
/>
<path stroke="#edb580" vector-effect="non-scaling-stroke" d="
  M 494.01 1140.52
  L 493.78 1140.00"
/>
<path stroke="#ed7a0e" vector-effect="non-scaling-stroke" d="
  M 835.99 1139.97
  L 760.38 1139.98
  Q 760.24 1139.98 760.14 1140.09
  L 759.96 1140.30"
/>
<path stroke="#edb580" vector-effect="non-scaling-stroke" d="
  M 759.96 1140.30
  Q 759.50 1139.81 759.53 1139.99"
/>
<path stroke="#ed7a0e" vector-effect="non-scaling-stroke" d="
  M 569.98 1177.98
  L 494.21 1177.66"
/>
<path stroke="#ffc58e" vector-effect="non-scaling-stroke" d="
  M 494.21 1177.66
  L 494.01 1140.52"
/>
<path stroke="#ed7a0e" vector-effect="non-scaling-stroke" d="
  M 835.99 1178.01
  L 760.00 1177.69"
/>
<path stroke="#ffc58e" vector-effect="non-scaling-stroke" d="
  M 760.00 1177.69
  L 759.96 1140.30"
/>
<path stroke="#edb580" vector-effect="non-scaling-stroke" d="
  M 494.21 1177.66
  L 456.25 1177.77"
/>
<path stroke="#edb580" vector-effect="non-scaling-stroke" d="
  M 760.00 1177.69
  L 722.02 1177.93"
/>
<path stroke="#edb580" vector-effect="non-scaling-stroke" d="
  M 874.01 1178.01
  L 874.00 1216.00"
/>
</g>
<path fill="#9c9c9c" d="
  M 532.42 0.00
  L 1025.86 0.00
  L 1026.01 37.72
  A 0.28 0.28 0.0 0 0 1026.29 38.00
  L 1063.50 38.00
  Q 1064.00 38.00 1064.00 38.50
  L 1064.00 75.50
  Q 1064.00 76.00 1064.50 76.00
  L 1101.50 76.00
  A 0.50 0.50 0.0 0 1 1102.00 76.50
  L 1102.00 113.50
  Q 1102.00 114.00 1102.50 114.00
  L 1139.50 114.00
  Q 1140.00 114.00 1140.00 114.50
  L 1140.00 151.50
  Q 1140.00 152.00 1140.50 152.00
  L 1177.50 152.00
  A 0.50 0.50 0.0 0 1 1178.00 152.50
  L 1178.00 189.71
  A 0.28 0.28 0.0 0 0 1178.28 189.99
  L 1216.00 190.14
  L 1216.00 607.90
  L 1178.51 608.01
  Q 1178.00 608.01 1178.00 608.52
  L 1178.00 645.25
  A 0.75 0.75 0.0 0 1 1177.25 646.00
  L 1140.50 646.00
  Q 1140.00 646.00 1140.00 646.50
  L 1140.00 721.25
  A 0.75 0.75 0.0 0 1 1139.25 722.00
  L 1102.50 722.00
  Q 1102.00 722.00 1102.00 722.50
  L 1102.00 759.50
  Q 1102.00 760.00 1101.50 760.00
  L 1064.50 760.00
  Q 1064.00 760.00 1064.00 760.50
  L 1064.00 797.25
  A 0.75 0.75 0.0 0 1 1063.25 798.00
  L 1026.50 798.00
  Q 1026.00 798.00 1026.00 798.50
  L 1026.00 835.04
  Q 1026.00 835.99 1025.05 835.99
  L 988.01 836.00
  L 988.00 798.73
  A 0.73 0.72 90.0 0 1 988.72 798.00
  L 1025.50 798.01
  Q 1026.01 798.01 1026.01 797.50
  L 1026.01 722.75
  A 0.74 0.74 0.0 0 1 1026.75 722.01
  L 1063.26 722.00
  A 0.76 0.76 0.0 0 0 1064.02 721.24
  L 1064.00 684.75
  Q 1064.00 684.00 1064.75 684.00
  L 1101.50 684.00
  A 0.51 0.50 -0.0 0 0 1102.01 683.50
  L 1102.02 647.00
  Q 1102.02 646.02 1103.00 646.02
  L 1139.25 645.99
  Q 1140.00 645.99 1140.00 645.25
  L 1140.00 570.75
  A 0.75 0.75 0.0 0 1 1140.75 570.00
  L 1177.25 570.02
  A 0.77 0.76 -90.0 0 0 1178.01 569.25
  L 1178.01 191.25
  A 1.26 1.25 0.0 0 0 1176.75 190.00
  L 1140.75 190.00
  A 0.75 0.75 0.0 0 1 1140.00 189.25
  L 1140.00 152.26
  A 0.25 0.25 0.0 0 0 1139.75 152.01
  L 1102.75 151.98
  A 0.73 0.73 0.0 0 1 1102.02 151.25
  L 1102.02 115.01
  A 1.02 1.01 -90.0 0 0 1101.01 113.99
  L 1064.76 114.00
  A 0.75 0.74 -0.0 0 1 1064.01 113.26
  L 1064.01 76.26
  A 0.26 0.26 0.0 0 0 1063.75 76.00
  L 1026.75 75.99
  A 0.74 0.73 90.0 0 1 1026.02 75.25
  L 1026.02 39.25
  A 1.25 1.25 0.0 0 0 1024.77 38.00
  L 532.05 38.00
  L 532.42 0.00
  Z"
/>
<path class="whitefill" fill="#ffffff" d="
  M 988.01 836.00
  L 912.70 836.00
  A 0.70 0.69 0.0 0 0 912.00 836.69
  L 912.02 873.24
  A 0.76 0.76 0.0 0 1 911.26 874.00
  L 495.24 874.00
  A 1.26 1.25 -90.0 0 1 493.99 872.74
  L 494.00 836.75
  A 0.75 0.75 0.0 0 0 493.25 836.00
  L 419.24 836.00
  Q 417.98 836.00 417.98 834.74
  L 418.00 798.76
  A 0.74 0.74 0.0 0 0 417.26 798.02
  L 380.75 797.99
  A 0.75 0.74 -0.0 0 1 380.00 797.25
  L 380.00 760.50
  A 0.50 0.50 0.0 0 0 379.50 760.00
  L 304.50 760.00
  A 0.50 0.50 0.0 0 1 304.00 759.50
  L 304.00 722.75
  A 0.75 0.75 0.0 0 0 303.25 722.00
  L 266.75 722.00
  A 0.75 0.75 0.0 0 1 266.00 721.25
  L 266.00 684.75
  A 0.75 0.75 0.0 0 0 265.25 684.00
  L 228.30 684.00
  A 0.30 0.30 0.0 0 1 228.00 683.70
  L 228.00 646.75
  A 0.75 0.74 -0.0 0 0 227.25 646.01
  L 152.56 646.00
  A 0.57 0.56 90.0 0 0 152.00 646.57
  L 152.01 684.00
  L 76.70 684.00
  A 0.70 0.69 -0.0 0 0 76.00 684.69
  L 76.00 721.25
  A 0.75 0.75 0.0 0 1 75.25 722.00
  L 38.94 722.00
  A 0.94 0.94 0.0 0 1 38.00 721.06
  L 38.00 646.04
  L 75.24 646.00
  A 0.76 0.75 -0.0 0 0 76.00 645.25
  L 76.00 607.99
  L 113.45 608.00
  A 0.54 0.54 0.0 0 0 113.99 607.46
  L 114.01 569.99
  L 151.12 570.00
  Q 151.99 570.00 151.99 569.12
  L 152.00 531.99
  L 189.43 532.00
  A 0.57 0.57 0.0 0 0 190.00 531.43
  L 190.00 493.99
  L 227.04 494.00
  Q 228.00 494.00 228.00 493.04
  L 228.00 342.50
  Q 228.00 342.00 228.50 342.00
  L 265.48 341.99
  A 0.51 0.51 0.0 0 0 265.99 341.48
  L 266.00 265.99
  L 303.12 266.00
  Q 303.99 266.00 303.99 265.12
  L 304.00 189.99
  L 341.12 190.00
  Q 342.00 190.00 342.00 189.12
  L 342.01 151.99
  L 379.12 152.00
  Q 380.00 152.00 380.00 151.12
  L 380.00 113.99
  L 417.25 113.99
  A 0.74 0.74 0.0 0 0 417.99 113.25
  L 418.01 76.00
  L 531.20 76.00
  A 0.79 0.79 0.0 0 0 531.99 75.21
  L 532.05 38.00
  L 1024.77 38.00
  A 1.25 1.25 0.0 0 1 1026.02 39.25
  L 1026.02 75.25
  A 0.74 0.73 90.0 0 0 1026.75 75.99
  L 1063.75 76.00
  A 0.26 0.26 0.0 0 1 1064.01 76.26
  L 1064.01 113.26
  A 0.75 0.74 -0.0 0 0 1064.76 114.00
  L 1101.01 113.99
  A 1.02 1.01 90.0 0 1 1102.02 115.01
  L 1102.02 151.25
  A 0.73 0.73 0.0 0 0 1102.75 151.98
  L 1139.75 152.01
  A 0.25 0.25 0.0 0 1 1140.00 152.26
  L 1140.00 189.25
  A 0.75 0.75 0.0 0 0 1140.75 190.00
  L 1176.75 190.00
  A 1.26 1.25 -0.0 0 1 1178.01 191.25
  L 1178.01 569.25
  A 0.77 0.76 -90.0 0 1 1177.25 570.02
  L 1140.75 570.00
  A 0.75 0.75 0.0 0 0 1140.00 570.75
  L 1140.00 645.25
  Q 1140.00 645.99 1139.25 645.99
  L 1103.00 646.02
  Q 1102.02 646.02 1102.02 647.00
  L 1102.01 683.50
  A 0.51 0.50 -0.0 0 1 1101.50 684.00
  L 1064.75 684.00
  Q 1064.00 684.00 1064.00 684.75
  L 1064.02 721.24
  A 0.76 0.76 0.0 0 1 1063.26 722.00
  L 1026.75 722.01
  A 0.74 0.74 0.0 0 0 1026.01 722.75
  L 1026.01 797.50
  Q 1026.01 798.01 1025.50 798.01
  L 988.72 798.00
  A 0.73 0.72 90.0 0 0 988.00 798.73
  L 988.01 836.00
  Z
  M 911.98 380.03
  L 911.97 417.06
  A 0.92 0.92 0.0 0 1 911.05 417.98
  L 874.24 418.02
  A 0.24 0.24 0.0 0 0 874.00 418.26
  L 873.99 455.25
  A 0.74 0.74 0.0 0 1 873.25 455.99
  L 836.49 456.02
  A 0.49 0.48 -90.0 0 0 836.01 456.51
  L 836.00 493.50
  A 0.50 0.50 0.0 0 0 836.50 494.00
  L 873.00 494.00
  A 1.00 0.99 90.0 0 1 873.99 495.00
  L 874.00 531.50
  A 0.50 0.50 0.0 0 0 874.50 532.00
  L 911.00 532.00
  A 1.01 1.00 -0.0 0 1 912.01 533.00
  L 912.00 569.38
  A 0.63 0.62 -0.0 0 0 912.63 570.00
  L 1025.24 569.99
  A 0.74 0.73 -0.0 0 0 1025.98 569.26
  L 1026.00 532.50
  Q 1026.00 532.01 1026.50 532.00
  L 1063.00 531.99
  A 0.99 0.99 0.0 0 0 1063.99 531.00
  L 1063.98 494.75
  Q 1063.98 494.01 1063.25 494.01
  L 1027.04 494.00
  Q 1026.81 494.00 1026.61 494.11
  Q 1026.45 494.20 1026.22 494.22
  Q 1026.09 494.22 1025.92 494.13
  Q 1025.71 494.00 1025.46 494.00
  L 988.75 494.00
  A 0.75 0.75 0.0 0 1 988.00 493.25
  L 988.00 456.72
  A 0.71 0.71 0.0 0 0 987.29 456.01
  L 949.77 455.78
  L 950.01 418.77
  A 0.77 0.77 0.0 0 1 950.78 418.01
  L 1025.25 417.99
  A 0.74 0.74 0.0 0 0 1025.99 417.25
  L 1026.00 380.72
  A 0.71 0.71 0.0 0 0 1025.30 380.01
  L 988.06 379.67
  L 988.01 342.57
  Q 988.01 342.05 988.52 342.05
  L 1025.26 341.98
  A 0.74 0.74 0.0 0 0 1026.00 341.24
  L 1026.00 228.75
  A 0.75 0.75 0.0 0 0 1025.25 228.00
  L 988.90 227.99
  A 0.84 0.83 -90.0 0 1 988.07 227.15
  L 987.98 190.74
  A 0.74 0.74 0.0 0 0 987.24 190.00
  L 874.26 190.00
  A 0.24 0.24 0.0 0 0 874.02 190.24
  L 873.97 227.08
  A 0.92 0.92 0.0 0 1 873.05 228.00
  L 836.50 228.00
  A 0.50 0.50 0.0 0 0 836.00 228.50
  L 836.00 341.25
  Q 836.00 342.00 836.75 342.00
  L 872.99 342.02
  A 0.98 0.97 0.0 0 1 873.97 342.99
  L 874.01 379.45
  Q 874.01 380.01 874.58 380.01
  L 911.98 380.03
  Z
  M 798.00 266.72
  A 0.70 0.70 0.0 0 0 797.30 266.02
  L 760.75 265.95
  A 0.70 0.70 0.0 0 1 760.05 265.25
  L 759.98 228.70
  A 0.70 0.70 0.0 0 0 759.28 228.00
  L 646.71 228.00
  A 0.70 0.70 0.0 0 0 646.01 228.70
  L 645.97 265.29
  A 0.70 0.70 0.0 0 1 645.27 265.99
  L 608.70 266.00
  A 0.70 0.70 0.0 0 0 608.00 266.70
  L 608.00 379.29
  A 0.70 0.70 0.0 0 0 608.70 379.99
  L 645.28 380.04
  A 0.70 0.70 0.0 0 1 645.98 380.74
  L 646.01 417.30
  A 0.70 0.70 0.0 0 0 646.71 418.00
  L 759.28 417.99
  A 0.70 0.70 0.0 0 0 759.98 417.29
  L 760.04 380.74
  A 0.70 0.70 0.0 0 1 760.74 380.04
  L 797.31 379.98
  A 0.70 0.70 0.0 0 0 798.01 379.28
  L 798.00 266.72
  Z
  M 455.99 532.61
  A 0.62 0.62 0.0 0 1 456.61 531.99
  L 493.38 532.00
  A 0.62 0.62 0.0 0 0 494.00 531.38
  L 494.00 494.62
  A 0.62 0.62 0.0 0 1 494.62 494.00
  L 607.37 494.00
  A 0.62 0.62 0.0 0 0 607.99 493.38
  L 608.00 456.62
  A 0.62 0.62 0.0 0 0 607.38 456.00
  L 456.62 456.00
  A 0.62 0.62 0.0 0 0 456.00 456.62
  L 456.00 493.37
  A 0.62 0.62 0.0 0 1 455.38 493.99
  L 418.63 494.01
  A 0.62 0.62 0.0 0 0 418.01 494.63
  L 418.02 531.38
  A 0.62 0.62 0.0 0 1 417.40 532.00
  L 380.63 532.00
  A 0.62 0.62 0.0 0 0 380.01 532.62
  L 379.99 569.37
  A 0.62 0.62 0.0 0 1 379.37 569.99
  L 342.66 570.03
  A 0.62 0.62 0.0 0 0 342.04 570.65
  L 342.06 607.36
  A 0.62 0.62 0.0 0 0 342.68 607.98
  L 417.38 608.01
  A 0.62 0.62 0.0 0 0 418.00 607.39
  L 417.99 570.61
  A 0.62 0.62 0.0 0 1 418.61 569.99
  L 455.38 570.00
  A 0.62 0.62 0.0 0 0 456.00 569.38
  L 455.99 532.61
  Z
  M 569.93 683.99
  L 456.71 683.99
  A 0.70 0.70 0.0 0 0 456.01 684.69
  L 456.03 721.26
  A 0.74 0.73 90.0 0 0 456.76 722.00
  L 569.28 722.00
  A 0.71 0.71 0.0 0 0 569.99 721.29
  L 569.93 683.99
  L 607.33 683.97
  A 0.66 0.66 0.0 0 0 607.99 683.31
  L 607.99 646.75
  A 0.75 0.74 -90.0 0 0 607.25 646.00
  L 570.71 646.02
  Q 570.03 646.02 570.03 646.70
  L 569.93 683.99
  Z"
/>
<path fill="#9c9c9c" d="
  M 532.05 38.00
  L 531.99 75.21
  A 0.79 0.79 0.0 0 1 531.20 76.00
  L 418.01 76.00
  L 418.02 39.19
  Q 418.02 38.01 419.20 38.01
  L 532.05 38.00
  Z"
/>
<path fill="#9c9c9c" d="
  M 418.01 76.00
  L 417.99 113.25
  A 0.74 0.74 0.0 0 1 417.25 113.99
  L 380.00 113.99
  L 380.01 77.01
  A 0.98 0.98 0.0 0 1 380.99 76.03
  L 418.01 76.00
  Z"
/>
<path fill="#9c9c9c" d="
  M 380.00 113.99
  L 380.00 151.12
  Q 380.00 152.00 379.12 152.00
  L 342.01 151.99
  L 342.03 114.87
  Q 342.03 114.01 342.89 114.01
  L 380.00 113.99
  Z"
/>
<path fill="#9c9c9c" d="
  M 342.01 151.99
  L 342.00 189.12
  Q 342.00 190.00 341.12 190.00
  L 304.00 189.99
  L 304.01 153.09
  A 1.07 1.07 0.0 0 1 305.08 152.02
  L 342.01 151.99
  Z"
/>
<path fill="#9c9c9c" d="
  M 304.00 189.99
  L 303.99 265.12
  Q 303.99 266.00 303.12 266.00
  L 266.00 265.99
  L 266.01 191.12
  A 1.10 1.10 0.0 0 1 267.10 190.02
  L 304.00 189.99
  Z"
/>
<path fill="#000000" d="
  M 988.06 379.67
  Q 985.07 380.13 981.50 380.11
  Q 946.73 379.91 911.98 380.03
  L 874.58 380.01
  Q 874.01 380.01 874.01 379.45
  L 873.97 342.99
  A 0.98 0.97 0.0 0 0 872.99 342.02
  L 836.75 342.00
  Q 836.00 342.00 836.00 341.25
  L 836.00 228.50
  A 0.50 0.50 0.0 0 1 836.50 228.00
  L 873.05 228.00
  A 0.92 0.92 0.0 0 0 873.97 227.08
  L 874.02 190.24
  A 0.24 0.24 0.0 0 1 874.26 190.00
  L 987.24 190.00
  A 0.74 0.74 0.0 0 1 987.98 190.74
  L 988.07 227.15
  A 0.84 0.83 -90.0 0 0 988.90 227.99
  L 1025.25 228.00
  A 0.75 0.75 0.0 0 1 1026.00 228.75
  L 1026.00 341.24
  A 0.74 0.74 0.0 0 1 1025.26 341.98
  L 988.52 342.05
  Q 988.01 342.05 988.01 342.57
  L 988.06 379.67
  Z
  M 987.79 304.00
  L 987.97 228.71
  A 0.65 0.64 90.0 0 0 987.33 228.06
  L 911.98 228.05
  L 874.99 228.04
  A 0.98 0.97 -0.0 0 0 874.01 229.01
  L 874.04 341.01
  Q 874.04 341.98 875.01 341.98
  L 987.48 341.99
  A 0.46 0.45 90.0 0 0 987.93 341.53
  L 987.79 304.00
  Z"
/>
<path fill="#000000" d="
  M 798.00 266.72
  L 798.01 379.28
  A 0.70 0.70 0.0 0 1 797.31 379.98
  L 760.74 380.04
  A 0.70 0.70 0.0 0 0 760.04 380.74
  L 759.98 417.29
  A 0.70 0.70 0.0 0 1 759.28 417.99
  L 646.71 418.00
  A 0.70 0.70 0.0 0 1 646.01 417.30
  L 645.98 380.74
  A 0.70 0.70 0.0 0 0 645.28 380.04
  L 608.70 379.99
  A 0.70 0.70 0.0 0 1 608.00 379.29
  L 608.00 266.70
  A 0.70 0.70 0.0 0 1 608.70 266.00
  L 645.27 265.99
  A 0.70 0.70 0.0 0 0 645.97 265.29
  L 646.01 228.70
  A 0.70 0.70 0.0 0 1 646.71 228.00
  L 759.28 228.00
  A 0.70 0.70 0.0 0 1 759.98 228.70
  L 760.05 265.25
  A 0.70 0.70 0.0 0 0 760.75 265.95
  L 797.30 266.02
  A 0.70 0.70 0.0 0 1 798.00 266.72
  Z
  M 759.99 342.00
  L 759.97 266.69
  A 0.66 0.66 0.0 0 0 759.31 266.03
  L 683.97 266.05
  L 646.98 266.04
  A 0.97 0.96 -0.0 0 0 646.01 267.00
  L 646.05 379.10
  A 0.89 0.89 0.0 0 0 646.94 379.99
  L 759.48 379.96
  A 0.41 0.41 0.0 0 0 759.89 379.55
  L 759.99 342.00
  Z"
/>
<path fill="#0058db" d="
  M 911.98 228.05
  L 911.99 303.32
  A 0.68 0.67 0.0 0 0 912.67 303.99
  L 987.79 304.00
  L 987.93 341.53
  A 0.46 0.45 90.0 0 1 987.48 341.99
  L 875.01 341.98
  Q 874.04 341.98 874.04 341.01
  L 874.01 229.01
  A 0.98 0.97 0.0 0 1 874.99 228.04
  L 911.98 228.05
  Z"
/>
<path fill="#ffffff" d="
  M 987.79 304.00
  L 912.67 303.99
  A 0.68 0.67 -0.0 0 1 911.99 303.32
  L 911.98 228.05
  L 987.33 228.06
  A 0.65 0.64 -90.0 0 1 987.97 228.71
  L 987.79 304.00
  Z"
/>
<path fill="#9c9c9c" d="
  M 266.00 265.99
  L 265.99 341.48
  A 0.51 0.51 0.0 0 1 265.48 341.99
  L 228.50 342.00
  Q 228.00 342.00 228.00 342.50
  L 228.00 493.04
  Q 228.00 494.00 227.04 494.00
  L 190.00 493.99
  L 190.00 305.07
  A 1.06 1.06 0.0 0 1 191.06 304.01
  L 227.50 304.00
  Q 228.00 304.00 228.00 303.50
  L 228.00 266.79
  A 0.78 0.78 0.0 0 1 228.78 266.01
  L 266.00 265.99
  Z"
/>
<path fill="#0058db" d="
  M 683.97 266.05
  L 683.98 341.12
  A 0.88 0.87 -0.0 0 0 684.86 341.99
  L 759.99 342.00
  L 759.89 379.55
  A 0.41 0.41 0.0 0 1 759.48 379.96
  L 646.94 379.99
  A 0.89 0.89 0.0 0 1 646.05 379.10
  L 646.01 267.00
  A 0.97 0.96 0.0 0 1 646.98 266.04
  L 683.97 266.05
  Z"
/>
<path fill="#ffffff" d="
  M 759.99 342.00
  L 684.86 341.99
  A 0.88 0.87 0.0 0 1 683.98 341.12
  L 683.97 266.05
  L 759.31 266.03
  A 0.66 0.66 0.0 0 1 759.97 266.69
  L 759.99 342.00
  Z"
/>
<path fill="#f5b400" d="
  M 988.06 379.67
  L 1025.30 380.01
  A 0.71 0.71 0.0 0 1 1026.00 380.72
  L 1025.99 417.25
  A 0.74 0.74 0.0 0 1 1025.25 417.99
  L 950.78 418.01
  A 0.77 0.77 0.0 0 0 950.01 418.77
  L 949.77 455.78
  L 912.28 456.01
  A 0.27 0.27 0.0 0 0 912.01 456.28
  L 912.00 493.25
  A 0.75 0.75 0.0 0 0 912.75 494.00
  L 949.50 494.00
  A 0.50 0.50 0.0 0 1 950.00 494.50
  L 950.00 531.25
  A 0.76 0.75 90.0 0 0 950.75 532.01
  L 1025.29 532.00
  Q 1026.01 532.00 1026.02 531.28
  L 1026.22 494.22
  Q 1026.45 494.20 1026.61 494.11
  Q 1026.81 494.00 1027.04 494.00
  L 1063.25 494.01
  Q 1063.98 494.01 1063.98 494.75
  L 1063.99 531.00
  A 0.99 0.99 0.0 0 1 1063.00 531.99
  L 1026.50 532.00
  Q 1026.00 532.01 1026.00 532.50
  L 1025.98 569.26
  A 0.74 0.73 -0.0 0 1 1025.24 569.99
  L 912.63 570.00
  A 0.63 0.62 0.0 0 1 912.00 569.38
  L 912.01 533.00
  A 1.01 1.00 0.0 0 0 911.00 532.00
  L 874.50 532.00
  A 0.50 0.50 0.0 0 1 874.00 531.50
  L 873.99 495.00
  A 1.00 0.99 -90.0 0 0 873.00 494.00
  L 836.50 494.00
  A 0.50 0.50 0.0 0 1 836.00 493.50
  L 836.01 456.51
  A 0.49 0.48 -90.0 0 1 836.49 456.02
  L 873.25 455.99
  A 0.74 0.74 0.0 0 0 873.99 455.25
  L 874.00 418.26
  A 0.24 0.24 0.0 0 1 874.24 418.02
  L 911.05 417.98
  A 0.92 0.92 0.0 0 0 911.97 417.06
  L 911.98 380.03
  Q 946.73 379.91 981.50 380.11
  Q 985.07 380.13 988.06 379.67
  Z"
/>
<path fill="#bf2491" d="
  M 949.77 455.78
  L 987.29 456.01
  A 0.71 0.71 0.0 0 1 988.00 456.72
  L 988.00 493.25
  A 0.75 0.75 0.0 0 0 988.75 494.00
  L 1025.46 494.00
  Q 1025.71 494.00 1025.92 494.13
  Q 1026.09 494.22 1026.22 494.22
  L 1026.02 531.28
  Q 1026.01 532.00 1025.29 532.00
  L 950.75 532.01
  A 0.76 0.75 90.0 0 1 950.00 531.25
  L 950.00 494.50
  A 0.50 0.50 0.0 0 0 949.50 494.00
  L 912.75 494.00
  A 0.75 0.75 0.0 0 1 912.00 493.25
  L 912.01 456.28
  A 0.27 0.27 0.0 0 1 912.28 456.01
  L 949.77 455.78
  Z"
/>
<path fill="#9c9c9c" d="
  M 455.99 532.61
  L 456.00 569.38
  A 0.62 0.62 0.0 0 1 455.38 570.00
  L 418.61 569.99
  A 0.62 0.62 0.0 0 0 417.99 570.61
  L 418.00 607.39
  A 0.62 0.62 0.0 0 1 417.38 608.01
  L 342.68 607.98
  A 0.62 0.62 0.0 0 1 342.06 607.36
  L 342.04 570.65
  A 0.62 0.62 0.0 0 1 342.66 570.03
  L 379.37 569.99
  A 0.62 0.62 0.0 0 0 379.99 569.37
  L 380.01 532.62
  A 0.62 0.62 0.0 0 1 380.63 532.00
  L 417.40 532.00
  A 0.62 0.62 0.0 0 0 418.02 531.38
  L 418.01 494.63
  A 0.62 0.62 0.0 0 1 418.63 494.01
  L 455.38 493.99
  A 0.62 0.62 0.0 0 0 456.00 493.37
  L 456.00 456.62
  A 0.62 0.62 0.0 0 1 456.62 456.00
  L 607.38 456.00
  A 0.62 0.62 0.0 0 1 608.00 456.62
  L 607.99 493.38
  A 0.62 0.62 0.0 0 1 607.37 494.00
  L 494.62 494.00
  A 0.62 0.62 0.0 0 0 494.00 494.62
  L 494.00 531.38
  A 0.62 0.62 0.0 0 1 493.38 532.00
  L 456.61 531.99
  A 0.62 0.62 0.0 0 0 455.99 532.61
  Z"
/>
<path fill="#9c9c9c" d="
  M 190.00 493.99
  L 190.00 531.43
  A 0.57 0.57 0.0 0 1 189.43 532.00
  L 152.00 531.99
  L 152.01 494.89
  A 0.87 0.87 0.0 0 1 152.88 494.02
  L 190.00 493.99
  Z"
/>
<path fill="#9c9c9c" d="
  M 152.00 531.99
  L 151.99 569.12
  Q 151.99 570.00 151.12 570.00
  L 114.01 569.99
  L 114.03 532.86
  Q 114.03 532.02 114.88 532.02
  L 152.00 531.99
  Z"
/>
<path fill="#9c9c9c" d="
  M 114.01 569.99
  L 113.99 607.46
  A 0.54 0.54 0.0 0 1 113.45 608.00
  L 76.00 607.99
  L 76.01 570.82
  A 0.81 0.81 0.0 0 1 76.82 570.01
  L 114.01 569.99
  Z"
/>
<path fill="#9c9c9c" d="
  M 76.00 607.99
  L 76.00 645.25
  A 0.76 0.75 -0.0 0 1 75.24 646.00
  L 38.00 646.04
  L 38.02 609.19
  Q 38.02 608.02 39.19 608.02
  L 76.00 607.99
  Z"
/>
<path fill="#9c9c9c" d="
  M 38.00 646.04
  L 38.00 721.06
  A 0.94 0.94 0.0 0 0 38.94 722.00
  L 75.25 722.00
  A 0.75 0.75 0.0 0 0 76.00 721.25
  L 76.00 684.69
  A 0.70 0.69 -0.0 0 1 76.70 684.00
  L 152.01 684.00
  L 151.99 721.29
  A 0.71 0.71 0.0 0 1 151.28 722.00
  L 114.50 722.00
  Q 114.00 722.00 114.00 722.50
  L 114.00 759.48
  A 0.52 0.52 0.0 0 1 113.48 760.00
  L 0.00 759.94
  L 0.00 646.32
  L 38.00 646.04
  Z"
/>
<path fill="#9c9c9c" d="
  M 988.01 836.00
  L 987.99 873.29
  A 0.71 0.71 0.0 0 1 987.28 874.00
  L 950.50 874.00
  Q 950.00 874.00 950.00 874.50
  L 950.00 911.27
  Q 950.00 912.03 949.23 912.03
  L 835.99 912.02
  L 759.79 912.28
  L 569.99 912.21
  L 494.01 912.00
  L 494.02 874.73
  A 0.73 0.73 0.0 0 0 493.29 874.00
  L 418.75 874.00
  A 0.75 0.75 0.0 0 1 418.00 873.25
  L 418.00 836.50
  Q 418.00 836.00 417.50 836.00
  L 342.75 836.00
  Q 342.00 836.00 342.00 835.25
  L 342.00 798.75
  A 0.75 0.75 0.0 0 0 341.25 798.00
  L 304.75 798.00
  Q 304.00 798.00 304.00 797.25
  L 304.00 760.50
  Q 304.00 760.00 303.50 760.00
  L 228.75 760.00
  A 0.75 0.75 0.0 0 1 228.00 759.25
  L 228.00 722.75
  Q 228.00 722.00 227.25 722.00
  L 190.75 722.00
  A 0.75 0.75 0.0 0 1 190.00 721.25
  L 190.00 684.45
  A 0.45 0.44 0.0 0 0 189.55 684.01
  L 152.01 684.00
  L 152.00 646.57
  A 0.57 0.56 -90.0 0 1 152.56 646.00
  L 227.25 646.01
  A 0.75 0.74 -0.0 0 1 228.00 646.75
  L 228.00 683.70
  A 0.30 0.30 0.0 0 0 228.30 684.00
  L 265.25 684.00
  A 0.75 0.75 0.0 0 1 266.00 684.75
  L 266.00 721.25
  A 0.75 0.75 0.0 0 0 266.75 722.00
  L 303.25 722.00
  A 0.75 0.75 0.0 0 1 304.00 722.75
  L 304.00 759.50
  A 0.50 0.50 0.0 0 0 304.50 760.00
  L 379.50 760.00
  A 0.50 0.50 0.0 0 1 380.00 760.50
  L 380.00 797.25
  A 0.75 0.74 -0.0 0 0 380.75 797.99
  L 417.26 798.02
  A 0.74 0.74 0.0 0 1 418.00 798.76
  L 417.98 834.74
  Q 417.98 836.00 419.24 836.00
  L 493.25 836.00
  A 0.75 0.75 0.0 0 1 494.00 836.75
  L 493.99 872.74
  A 1.26 1.25 90.0 0 0 495.24 874.00
  L 911.26 874.00
  A 0.76 0.76 0.0 0 0 912.02 873.24
  L 912.00 836.69
  A 0.70 0.69 0.0 0 1 912.70 836.00
  L 988.01 836.00
  Z"
/>
<path fill="#9c9c9c" d="
  M 569.93 683.99
  L 570.03 646.70
  Q 570.03 646.02 570.71 646.02
  L 607.25 646.00
  A 0.75 0.74 -90.0 0 1 607.99 646.75
  L 607.99 683.31
  A 0.66 0.66 0.0 0 1 607.33 683.97
  L 569.93 683.99
  Z"
/>
<path fill="#9c9c9c" d="
  M 569.93 683.99
  L 569.99 721.29
  A 0.71 0.71 0.0 0 1 569.28 722.00
  L 456.76 722.00
  A 0.74 0.73 -90.0 0 1 456.03 721.26
  L 456.01 684.69
  A 0.70 0.70 0.0 0 1 456.71 683.99
  L 569.93 683.99
  Z"
/>
<path fill="#ff8a1c" d="
  M 494.01 912.00
  L 569.99 912.21
  L 569.99 950.00
  L 494.01 950.03
  L 494.01 912.00
  Z"
/>
<path fill="#ff8a1c" d="
  M 835.99 912.02
  L 835.99 950.04
  L 760.00 950.01
  L 759.79 912.28
  L 835.99 912.02
  Z"
/>
<path fill="#db6a00" d="
  M 569.99 950.00
  L 569.99 987.97
  L 494.01 987.99
  L 494.01 950.03
  L 569.99 950.00
  Z"
/>
<path fill="#db6a00" d="
  M 760.00 950.01
  L 835.99 950.04
  L 835.99 987.96
  L 760.01 987.96
  L 760.00 950.01
  Z"
/>
<path fill="#ff8a1c" d="
  M 569.99 987.97
  L 569.99 1025.98
  L 494.01 1025.96
  L 494.01 987.99
  L 569.99 987.97
  Z"
/>
<path fill="#ff8a1c" d="
  M 760.01 987.96
  L 835.99 987.96
  L 835.99 1026.00
  L 760.01 1025.98
  L 760.01 987.96
  Z"
/>
<path fill="#db6a00" d="
  M 494.01 1025.96
  L 569.99 1025.98
  L 569.99 1063.97
  L 494.01 1063.98
  L 494.01 1025.96
  Z"
/>
<path fill="#db6a00" d="
  M 760.01 1025.98
  L 835.99 1026.00
  L 835.99 1063.95
  L 760.01 1063.97
  L 760.01 1025.98
  Z"
/>
<path fill="#ff8a1c" d="
  M 569.99 1063.97
  L 569.99 1102.00
  L 494.00 1102.03
  L 494.01 1063.98
  L 569.99 1063.97
  Z"
/>
<path fill="#ff8a1c" d="
  M 835.99 1063.95
  L 835.99 1102.04
  L 760.00 1102.01
  L 760.01 1063.97
  L 835.99 1063.95
  Z"
/>
<path fill="#db6a00" d="
  M 569.99 1102.00
  L 569.99 1139.97
  Q 532.28 1140.02 494.75 1140.00
  Q 494.47 1140.00 494.01 1140.52
  L 493.78 1140.00
  L 494.00 1102.03
  L 569.99 1102.00
  Z"
/>
<path fill="#db6a00" d="
  M 760.00 1102.01
  L 835.99 1102.04
  L 835.99 1139.97
  L 760.38 1139.98
  Q 760.24 1139.98 760.14 1140.09
  L 759.96 1140.30
  Q 759.50 1139.81 759.53 1139.99
  Q 759.90 1139.62 759.90 1139.25
  Q 760.04 1120.57 760.00 1102.01
  Z"
/>
<path fill="#ff8a1c" d="
  M 569.99 1139.97
  L 569.98 1177.98
  L 494.21 1177.66
  L 494.01 1140.52
  Q 494.47 1140.00 494.75 1140.00
  Q 532.28 1140.02 569.99 1139.97
  Z"
/>
<path fill="#ff8a1c" d="
  M 835.99 1139.97
  L 835.99 1178.01
  L 760.00 1177.69
  L 759.96 1140.30
  L 760.14 1140.09
  Q 760.24 1139.98 760.38 1139.98
  L 835.99 1139.97
  Z"
/>
<path fill="#ffffff" d="
  M 493.78 1140.00
  L 494.01 1140.52
  L 494.21 1177.66
  L 456.25 1177.77
  L 456.00 1140.82
  A 0.81 0.81 0.0 0 1 456.81 1140.01
  L 493.78 1140.00
  Z"
/>
<path fill="#ffffff" d="
  M 759.53 1139.99
  Q 759.50 1139.81 759.96 1140.30
  L 760.00 1177.69
  L 722.02 1177.93
  L 722.05 1140.65
  A 0.66 0.65 -0.0 0 1 722.71 1140.00
  L 759.53 1139.99
  Z"
/>
<path fill="#db6a00" d="
  M 456.25 1177.77
  L 494.21 1177.66
  L 569.98 1177.98
  L 569.95 1216.00
  L 456.14 1216.00
  L 456.25 1177.77
  Z"
/>
<path fill="#db6a00" d="
  M 722.02 1177.93
  L 760.00 1177.69
  L 835.99 1178.01
  L 874.01 1178.01
  L 874.00 1216.00
  L 722.01 1216.00
  L 722.02 1177.93
  Z"
/>
<path fill="#ffffff" d="
  M 874.01 1178.01
  L 910.97 1178.03
  A 1.03 1.03 0.0 0 1 912.00 1179.06
  L 911.90 1216.00
  L 874.00 1216.00
  L 874.01 1178.01
  Z"
/>

<style>
  .whitefill
  {
    transition: 1s cubic-bezier(0.86, 0, 0.07, 1);
  }
  .whitefill:hover
  {
    transform: scaleX(2);
  }
</style>
</svg>